PERFORMER "Max Graham"
TITLE "Essential Mix (2006-07-16)"
FILE "01-max_graham-essential_mix-sat-16-07-2006-1king.mp3" MP3
  TRACK 01 AUDIO
    PERFORMER "Essential Mix"
    TITLE "Intro"
    INDEX 01 00:00:00
  TRACK 02 AUDIO
    PERFORMER "Anil Chawla & Dale Anderson"
    TITLE "Disco Stew"
    INDEX 01 01:03:71
  TRACK 03 AUDIO
    PERFORMER "Paul Harris"
    TITLE "Find Yourself A Friend (Jon Gurd Master)"
    INDEX 01 07:48:70
  TRACK 04 AUDIO
    PERFORMER "Whelan & Di Scala"
    TITLE "Vamp"
    INDEX 01 10:18:71
  TRACK 05 AUDIO
    PERFORMER "Unknown"
    TITLE "Untitled (225)"
    INDEX 01 15:37:48
  TRACK 06 AUDIO
    PERFORMER "Jon Gurd"
    TITLE "Lemon Sherbert"
    INDEX 01 21:37:52
  TRACK 07 AUDIO
    PERFORMER "Alain Vinet"
    TITLE "Lust (Eric Kupper Mix)"
    INDEX 01 26:07:54
  TRACK 08 AUDIO
    PERFORMER "Max Graham"
    TITLE "April Showers"
    INDEX 01 33:52:57
  TRACK 09 AUDIO
    PERFORMER "Max Graham"
    TITLE "Space Disco"
    INDEX 01 38:22:57
  TRACK 10 AUDIO
    PERFORMER "D-Nox & Beckers"
    TITLE "You're A Star"
    INDEX 01 44:22:58
  TRACK 11 AUDIO
    PERFORMER "Max Graham"
    TITLE "Crank"
    INDEX 01 49:22:58
  TRACK 12 AUDIO
    PERFORMER "D-Nox & Beckers"
    TITLE "Jet Lag Slave"
    INDEX 01 55:22:58
  TRACK 13 AUDIO
    PERFORMER "Benjamin Bates"
    TITLE "Off"
    INDEX 01 61:56:40
  TRACK 14 AUDIO
    PERFORMER "Strike"
    TITLE "U Sure Do 2006"
    INDEX 01 67:50:64
  TRACK 15 AUDIO
    PERFORMER "Max Graham"
    TITLE "Smack"
    INDEX 01 73:50:65
  TRACK 16 AUDIO
    PERFORMER "Nick K."
    TITLE "One Of Those Things"
    INDEX 01 81:20:67
  TRACK 17 AUDIO
    PERFORMER "The Marches"
    TITLE "Turn It Around (Bombdogs Remix)"
    INDEX 01 87:05:70
  TRACK 18 AUDIO
    PERFORMER "Wally Lopez vs. Dark Suite"
    TITLE "Darksuite 06 (Tommy Boy Remix)"
    INDEX 01 95:05:70
  TRACK 19 AUDIO
    PERFORMER "Andy Cato"
    TITLE "La Luna"
    INDEX 01 101:06:00
  TRACK 20 AUDIO
    PERFORMER "Cicada"
    TITLE "The Things You Say (Invasion Remix)"
    INDEX 01 107:20:73
  TRACK 21 AUDIO
    PERFORMER "Envotion"
    TITLE "Untitled"
    INDEX 01 114:21:12